<svg xmlns="http://www.w3.org/2000/svg" viewBox="0 0 78.45 90.75"><defs><style>.cls-1{fill:#fff;}</style></defs><g id="Layer_2" data-name="Layer 2"><g id="LOGO"><polygon class="cls-1" points="19.75 31.59 19.48 31.81 4.84 44.77 4.82 31.6 0 31.6 0.03 60.14 4.85 60.14 4.84 49.48 8.8 46.17 19.43 59.82 19.71 60.12 25.68 60.12 24.54 58.88 12.25 43.53 24.17 32.89 25.71 31.58 19.75 31.59"/><path class="cls-1" d="M21,77.7c0,6-2.27,8.77-8.13,8.77s-8.16-2.8-8.16-8.76L4.72,62H0l0,17.2c0,7.18,4.56,11.61,12.85,11.6S25.74,86.3,25.73,79.13V65.59h8.56l0,25.15h4.78l0-25.15h8.21l0,25.15h4.77l0-25.15h6.8V61.89L21,61.93Z"/><polygon class="cls-1" points="52.57 32.05 43.29 54.1 33.82 32.07 33.59 31.57 27.53 31.58 27.56 60.11 32.32 60.11 32.3 39.85 40.98 59.6 41.19 60.1 45.25 60.09 45.47 59.6 54.05 39.85 54.07 60.09 58.84 60.08 58.81 31.55 52.79 31.55 52.57 32.05"/><path class="cls-1" d="M54.88,2a2,2,0,1,1-2-2,2,2,0,0,1,2,2"/><path class="cls-1" d="M54.89,7.89a2,2,0,1,1-2-2,2,2,0,0,1,2,2"/><path class="cls-1" d="M54.9,19.72a2,2,0,1,1-2-2,2,2,0,0,1,2,2"/><path class="cls-1" d="M54.9,25.64a2,2,0,1,1-2-2,2,2,0,0,1,2,2"/><path class="cls-1" d="M54.91,13.8a2,2,0,1,1-2-2,2,2,0,0,1,2,2"/><path class="cls-1" d="M49,13.81a2,2,0,1,1-2-2,2,2,0,0,1,2,2"/><path class="cls-1" d="M43.14,13.81a2,2,0,1,1-2-2,2,2,0,0,1,2,2"/><path class="cls-1" d="M66.68,13.79a2,2,0,1,1-2-2,2,2,0,0,1,2,2"/><path class="cls-1" d="M66.68,19.71a2,2,0,1,1-2-2,2,2,0,0,1,2,2"/><path class="cls-1" d="M60.79,13.8a2,2,0,1,1-2-2,2,2,0,0,1,2,2"/><path class="cls-1" d="M72.57,25.62a2,2,0,1,1-2-2,2,2,0,0,1,2,2"/><path class="cls-1" d="M66.69,25.63a2,2,0,1,1-2-2,2,2,0,0,1,2,2"/><path class="cls-1" d="M60.8,25.63a2,2,0,1,1-2-2,2,2,0,0,1,2,2"/><path class="cls-1" d="M78.45,25.61a2,2,0,1,1-2-2,2,2,0,0,1,2,2"/><path class="cls-1" d="M66.69,31.54a2,2,0,1,1-2-2,2,2,0,0,1,2,2"/><path class="cls-1" d="M66.7,37.46a2,2,0,1,1-2-2,2,2,0,0,1,2,2"/></g></g></svg>